<mxfile host="app.diagrams.net" modified="2023-11-13T17:19:46.600Z" agent="Mozilla/5.0 (Windows NT 10.0; Win64; x64) AppleWebKit/537.36 (KHTML, like Gecko) Chrome/119.0.0.0 Safari/537.36" etag="2SNgmpRySHPUQ8wLEaJG" version="22.1.0" type="device">
  <diagram name="Halaman-1" id="03vcWFel0aDOdsUAdJG1">
    <mxGraphModel dx="890" dy="2149" grid="1" gridSize="10" guides="1" tooltips="1" connect="1" arrows="1" fold="1" page="1" pageScale="1" pageWidth="827" pageHeight="1169" math="0" shadow="0">
      <root>
        <mxCell id="0" />
        <mxCell id="1" parent="0" />
        <mxCell id="DQAdJZ07NGrPx7TwDnHB-1" value="PENGGUNA" style="shape=umlActor;verticalLabelPosition=bottom;verticalAlign=top;html=1;outlineConnect=0;" parent="1" vertex="1">
          <mxGeometry x="120" y="150" width="30" height="60" as="geometry" />
        </mxCell>
        <mxCell id="DQAdJZ07NGrPx7TwDnHB-2" value="memasukan stasiun&lt;br&gt;awal dan tujuan" style="ellipse;whiteSpace=wrap;html=1;" parent="1" vertex="1">
          <mxGeometry x="320" y="20" width="120" height="80" as="geometry" />
        </mxCell>
        <mxCell id="DQAdJZ07NGrPx7TwDnHB-4" value="Mencari dan&lt;br&gt;memilih tiket" style="ellipse;whiteSpace=wrap;html=1;" parent="1" vertex="1">
          <mxGeometry x="320" y="110" width="120" height="80" as="geometry" />
        </mxCell>
        <mxCell id="DQAdJZ07NGrPx7TwDnHB-5" value="memasukan&amp;nbsp;&lt;br&gt;data pengguna" style="ellipse;whiteSpace=wrap;html=1;" parent="1" vertex="1">
          <mxGeometry x="294" y="200" width="120" height="80" as="geometry" />
        </mxCell>
        <mxCell id="DQAdJZ07NGrPx7TwDnHB-6" value="pembayaran" style="ellipse;whiteSpace=wrap;html=1;" parent="1" vertex="1">
          <mxGeometry x="290" y="300" width="120" height="80" as="geometry" />
        </mxCell>
        <mxCell id="DQAdJZ07NGrPx7TwDnHB-7" value="ADMIN" style="shape=umlActor;verticalLabelPosition=bottom;verticalAlign=top;html=1;outlineConnect=0;" parent="1" vertex="1">
          <mxGeometry x="660" y="150" width="30" height="60" as="geometry" />
        </mxCell>
        <mxCell id="DQAdJZ07NGrPx7TwDnHB-8" value="" style="endArrow=classic;html=1;rounded=0;endFill=1;entryX=0;entryY=0.625;entryDx=0;entryDy=0;entryPerimeter=0;" parent="1" edge="1" target="DQAdJZ07NGrPx7TwDnHB-2">
          <mxGeometry width="50" height="50" relative="1" as="geometry">
            <mxPoint x="160" y="190" as="sourcePoint" />
            <mxPoint x="240" y="110" as="targetPoint" />
          </mxGeometry>
        </mxCell>
        <mxCell id="DQAdJZ07NGrPx7TwDnHB-9" value="" style="endArrow=classic;html=1;rounded=0;entryX=0;entryY=0.5;entryDx=0;entryDy=0;endFill=1;" parent="1" target="DQAdJZ07NGrPx7TwDnHB-4" edge="1">
          <mxGeometry width="50" height="50" relative="1" as="geometry">
            <mxPoint x="160" y="190" as="sourcePoint" />
            <mxPoint x="250" y="120" as="targetPoint" />
          </mxGeometry>
        </mxCell>
        <mxCell id="DQAdJZ07NGrPx7TwDnHB-10" value="" style="endArrow=classic;html=1;rounded=0;endFill=1;" parent="1" target="DQAdJZ07NGrPx7TwDnHB-5" edge="1">
          <mxGeometry width="50" height="50" relative="1" as="geometry">
            <mxPoint x="160" y="190" as="sourcePoint" />
            <mxPoint x="260" y="130" as="targetPoint" />
          </mxGeometry>
        </mxCell>
        <mxCell id="DQAdJZ07NGrPx7TwDnHB-11" value="" style="endArrow=classic;html=1;rounded=0;entryX=0;entryY=0;entryDx=0;entryDy=0;endFill=1;" parent="1" target="DQAdJZ07NGrPx7TwDnHB-6" edge="1">
          <mxGeometry width="50" height="50" relative="1" as="geometry">
            <mxPoint x="160" y="190" as="sourcePoint" />
            <mxPoint x="270" y="140" as="targetPoint" />
          </mxGeometry>
        </mxCell>
        <mxCell id="yDjF_OrvJKq2-0epbgln-2" value="Memasukan&lt;br&gt;&amp;nbsp;data kereta" style="ellipse;whiteSpace=wrap;html=1;" vertex="1" parent="1">
          <mxGeometry x="330" y="-70" width="120" height="80" as="geometry" />
        </mxCell>
        <mxCell id="yDjF_OrvJKq2-0epbgln-3" value="" style="endArrow=classic;html=1;rounded=0;entryX=1;entryY=0.5;entryDx=0;entryDy=0;startArrow=none;startFill=0;endFill=1;" edge="1" parent="1" target="yDjF_OrvJKq2-0epbgln-2">
          <mxGeometry width="50" height="50" relative="1" as="geometry">
            <mxPoint x="650" y="190" as="sourcePoint" />
            <mxPoint x="250" y="120" as="targetPoint" />
          </mxGeometry>
        </mxCell>
        <mxCell id="yDjF_OrvJKq2-0epbgln-5" value="" style="endArrow=none;html=1;rounded=0;entryX=1;entryY=0.5;entryDx=0;entryDy=0;startArrow=classic;startFill=1;endFill=0;" edge="1" parent="1" target="DQAdJZ07NGrPx7TwDnHB-5">
          <mxGeometry width="50" height="50" relative="1" as="geometry">
            <mxPoint x="650" y="200" as="sourcePoint" />
            <mxPoint x="510" y="60" as="targetPoint" />
          </mxGeometry>
        </mxCell>
        <mxCell id="yDjF_OrvJKq2-0epbgln-7" value="" style="endArrow=none;html=1;rounded=0;entryX=1;entryY=0.5;entryDx=0;entryDy=0;startArrow=classic;startFill=1;endFill=0;" edge="1" parent="1" target="DQAdJZ07NGrPx7TwDnHB-6">
          <mxGeometry width="50" height="50" relative="1" as="geometry">
            <mxPoint x="640" y="210" as="sourcePoint" />
            <mxPoint x="424" y="250" as="targetPoint" />
          </mxGeometry>
        </mxCell>
        <mxCell id="yDjF_OrvJKq2-0epbgln-8" value="Cetak barcode&lt;br&gt;" style="ellipse;whiteSpace=wrap;html=1;" vertex="1" parent="1">
          <mxGeometry x="290" y="400" width="120" height="80" as="geometry" />
        </mxCell>
        <mxCell id="yDjF_OrvJKq2-0epbgln-9" value="" style="endArrow=classic;html=1;rounded=0;entryX=1.01;entryY=0.391;entryDx=0;entryDy=0;startArrow=none;startFill=0;endFill=1;entryPerimeter=0;" edge="1" parent="1" target="yDjF_OrvJKq2-0epbgln-8">
          <mxGeometry width="50" height="50" relative="1" as="geometry">
            <mxPoint x="650" y="220" as="sourcePoint" />
            <mxPoint x="420" y="350" as="targetPoint" />
          </mxGeometry>
        </mxCell>
        <mxCell id="yDjF_OrvJKq2-0epbgln-10" value="" style="endArrow=none;html=1;rounded=0;entryX=0.031;entryY=0.406;entryDx=0;entryDy=0;endFill=0;entryPerimeter=0;startArrow=classic;startFill=1;" edge="1" parent="1" target="yDjF_OrvJKq2-0epbgln-8">
          <mxGeometry width="50" height="50" relative="1" as="geometry">
            <mxPoint x="170" y="200" as="sourcePoint" />
            <mxPoint x="318" y="322" as="targetPoint" />
          </mxGeometry>
        </mxCell>
        <mxCell id="yDjF_OrvJKq2-0epbgln-11" value="membuat&amp;nbsp;&lt;br&gt;laporan penjualan&lt;br&gt;tiket&lt;br&gt;" style="ellipse;whiteSpace=wrap;html=1;" vertex="1" parent="1">
          <mxGeometry x="290" y="490" width="120" height="80" as="geometry" />
        </mxCell>
        <mxCell id="yDjF_OrvJKq2-0epbgln-12" value="" style="endArrow=classic;html=1;rounded=0;entryX=1;entryY=0.5;entryDx=0;entryDy=0;startArrow=none;startFill=0;endFill=1;" edge="1" parent="1" target="yDjF_OrvJKq2-0epbgln-11">
          <mxGeometry width="50" height="50" relative="1" as="geometry">
            <mxPoint x="660" y="230" as="sourcePoint" />
            <mxPoint x="421" y="441" as="targetPoint" />
          </mxGeometry>
        </mxCell>
        <mxCell id="yDjF_OrvJKq2-0epbgln-13" value="PIMPINAN&lt;br&gt;" style="shape=umlActor;verticalLabelPosition=bottom;verticalAlign=top;html=1;outlineConnect=0;" vertex="1" parent="1">
          <mxGeometry x="100" y="410" width="30" height="60" as="geometry" />
        </mxCell>
        <mxCell id="yDjF_OrvJKq2-0epbgln-14" value="" style="endArrow=none;html=1;rounded=0;entryX=0;entryY=0.5;entryDx=0;entryDy=0;endFill=0;startArrow=classic;startFill=1;" edge="1" parent="1" target="yDjF_OrvJKq2-0epbgln-11">
          <mxGeometry width="50" height="50" relative="1" as="geometry">
            <mxPoint x="140" y="460" as="sourcePoint" />
            <mxPoint x="304" y="442" as="targetPoint" />
          </mxGeometry>
        </mxCell>
        <mxCell id="yDjF_OrvJKq2-0epbgln-15" value="" style="endArrow=none;html=1;rounded=0;endFill=0;entryX=0;entryY=0.5;entryDx=0;entryDy=0;startArrow=classic;startFill=1;" edge="1" parent="1" target="yDjF_OrvJKq2-0epbgln-2">
          <mxGeometry width="50" height="50" relative="1" as="geometry">
            <mxPoint x="160" y="180" as="sourcePoint" />
            <mxPoint x="330" y="80" as="targetPoint" />
          </mxGeometry>
        </mxCell>
      </root>
    </mxGraphModel>
  </diagram>
</mxfile>
